<svg width="32" height="32" viewBox="0 0 32 32" fill="none" xmlns="http://www.w3.org/2000/svg">
<path d="M15.9997 5.33334C17.4142 5.33334 18.7707 5.89525 19.7709 6.89544C20.7711 7.89563 21.333 9.25219 21.333 10.6667C21.333 12.0812 20.7711 13.4377 19.7709 14.4379C18.7707 15.4381 17.4142 16 15.9997 16C14.5852 16 13.2286 15.4381 12.2284 14.4379C11.2282 13.4377 10.6663 12.0812 10.6663 10.6667C10.6663 9.25219 11.2282 7.89563 12.2284 6.89544C13.2286 5.89525 14.5852 5.33334 15.9997 5.33334ZM15.9997 8.00001C15.2924 8.00001 14.6142 8.28096 14.1141 8.78106C13.614 9.28116 13.333 9.95943 13.333 10.6667C13.333 11.3739 13.614 12.0522 14.1141 12.5523C14.6142 13.0524 15.2924 13.3333 15.9997 13.3333C16.7069 13.3333 17.3852 13.0524 17.8853 12.5523C18.3854 12.0522 18.6663 11.3739 18.6663 10.6667C18.6663 9.95943 18.3854 9.28116 17.8853 8.78106C17.3852 8.28096 16.7069 8.00001 15.9997 8.00001ZM15.9997 17.3333C19.5597 17.3333 26.6663 19.1067 26.6663 22.6667V26.6667H5.33301V22.6667C5.33301 19.1067 12.4397 17.3333 15.9997 17.3333ZM15.9997 19.8667C12.0397 19.8667 7.86634 21.8133 7.86634 22.6667V24.1333H24.133V22.6667C24.133 21.8133 19.9597 19.8667 15.9997 19.8667Z" fill="black"/>
</svg>
