<svg width="22" height="22" viewBox="0 0 22 22" fill="none" xmlns="http://www.w3.org/2000/svg">
<path d="M16.4997 11.9149H11.9163H11.5831H10.9873H10.3411H10.083H5.49967C5.25656 11.9149 5.0234 11.8183 4.85149 11.6464C4.67959 11.4745 4.58301 11.2414 4.58301 10.9983C4.58301 10.7551 4.67959 10.522 4.85149 10.3501C5.0234 10.1782 5.25656 10.0816 5.49967 10.0816H10.083L10.4353 10.0817L10.9873 10.0815L11.5447 10.0816L11.9163 10.0817L16.4997 10.0816C16.7428 10.0816 16.9759 10.1782 17.1479 10.3501C17.3198 10.522 17.4163 10.7551 17.4163 10.9983C17.4163 11.2414 17.3198 11.4745 17.1479 11.6464C16.9759 11.8183 16.7428 11.9149 16.4997 11.9149Z" fill="black"/>
</svg>
