<svg width="22" height="22" viewBox="0 0 22 22" fill="none" xmlns="http://www.w3.org/2000/svg">
<path d="M16.4997 11.9149H11.9163V16.4982C11.9163 16.7413 11.8198 16.9745 11.6479 17.1464C11.4759 17.3183 11.2428 17.4149 10.9997 17.4149C10.7566 17.4149 10.5234 17.3183 10.3515 17.1464C10.1796 16.9745 10.083 16.7413 10.083 16.4982V11.9149H5.49967C5.25656 11.9149 5.0234 11.8183 4.85149 11.6464C4.67959 11.4745 4.58301 11.2413 4.58301 10.9982C4.58301 10.7551 4.67959 10.5219 4.85149 10.35C5.0234 10.1781 5.25656 10.0815 5.49967 10.0815H10.083V5.49821C10.083 5.25509 10.1796 5.02194 10.3515 4.85003C10.5234 4.67812 10.7566 4.58154 10.9997 4.58154C11.2428 4.58154 11.4759 4.67812 11.6479 4.85003C11.8198 5.02194 11.9163 5.25509 11.9163 5.49821V10.0815H16.4997C16.7428 10.0815 16.9759 10.1781 17.1479 10.35C17.3198 10.5219 17.4163 10.7551 17.4163 10.9982C17.4163 11.2413 17.3198 11.4745 17.1479 11.6464C16.9759 11.8183 16.7428 11.9149 16.4997 11.9149Z" fill="black"/>
</svg>
